<svg version="1" xmlns="http://www.w3.org/2000/svg" width="682.667" height="682.667" viewBox="0 0 512.000000 512.000000"><path d="M204.4 79.2c0 13.6-.3 25.1-.7 25.5-.4.3-11.6.7-25 .7l-24.2.1-.2 25c0 13.7-.1 25.2-.2 25.5-.1.3-11.2.5-24.8.5h-24.8l-.2 24.5c0 13.5-.1 24.7-.2 25-.1.3-11.2.5-24.8.5H54.5v50.4c0 49.6 0 50.4 2 50.8 1.1.2 2.6.5 3.2.5 1 .1 1 .5.1 1.5-.9 1.1-.9 1.6.1 2.3 1.9 1.1 6.6-.4 6.5-2.2-.1-.8.5-1.5 1.2-1.5.9 0 1 .5.3 1.9-1 1.8 0 2.4 2.6 1.8.6-.1 1.5-.3 2.2-.3.7 0 1-.3.8-.7-.8-1.2 3.1-2.8 4.6-1.9 1.1.8 1 .9-.6.7-1.3-.2-2 .4-2.3 1.7-.2 1.1 0 1.6.5 1 .9-1.2 2.8-1.3 3.8-.3.4.4 1.7.2 2.8-.4 1.6-.8 2.2-.8 2.5.1.2.6.8.9 1.2.6.5-.3.7-1.3.4-2.3-.5-1.4-.4-1.5.5-.2 1.2 1.8 3.1 2 5 .6 1.1-.8 1.3-.8.8.1-.4.6-.3 1.4.2 1.7.5.3 1.4-.8 2.1-2.4.7-1.7 1.5-2.9 1.7-2.6.3.2 0 1.3-.6 2.4-1 1.9-.8 2 1.5 1.6 1.9-.3 2.4-.1 1.8.8-.6 1-.5 1 .7.1.9-.7 2-.8 2.9-.3.8.5 2.2.4 3.4-.2 1.5-.8 2.1-.8 2.4.1.2.6.9.8 1.5.4.7-.4 1.9-.8 2.7-.8.8 0 1.4-.7 1.4-1.6-.1-.9.5-1.6 1.2-1.6.9 0 1 .5.3 1.9-1 1.8 0 2.4 2.6 1.8.6-.1 1.5-.3 2.2-.3.7 0 1-.3.8-.7-.8-1.2 3.1-2.8 4.6-1.9 1.1.8 1 .9-.6.7-1.3-.2-2 .4-2.3 1.7-.2 1.2 0 1.6.5 1 .4-.6 2.2-1.1 3.8-1 2.1 0 3-.5 2.9-1.6-.1-.9.5-1.6 1.2-1.6.9 0 1 .5.3 1.9-1 1.8 0 2.4 2.6 1.8.6-.1 1.5-.3 2.2-.3.7 0 1-.3.8-.7-.8-1.2 3.1-2.8 4.6-1.9 1.1.8 1 .9-.6.7-1.3-.2-2 .4-2.3 1.7-.2 1.1 0 1.6.5 1 .9-1.2 2.8-1.3 3.8-.3.4.4 1.7.2 2.8-.4 1.6-.8 2.2-.8 2.5.1.6 1.8 2.2.2 1.6-1.7-.5-1.5-.4-1.5.6.1.6.9 1.5 1.5 2.1 1.2 1.1-.8 1.1-1.3 1.3 23.4.1 16.3-.2 20.5-1.3 20.9-.7.3-11.9.5-25 .6l-23.6.1v24.2c-.1 13.3-.4 24.6-.8 25-.5.4-11.7.8-25 .8H54.5V432c0 24.7.1 25.5 2 25.8 4.8.7 6.5 1.3 6.5 2.3 0 .8-.5.8-1.5-.1-.8-.6-1.9-.8-2.6-.4-.8.4.1 1.1 2.2 1.9 4.2 1.4 5.9.9 5.4-1.6-.2-1.1 0-1.7.6-1.4.5.4.7 1 .4 1.5-.3.4.2 1.3 1 2 1.3 1.1 1.4 1 .9-.6-.6-1.5-.4-1.7.6-.7.9.8 2.9 1 5.8.6s4.3-.3 3.9.4c-.7 1.2 2.9 1 4-.2.5-.4.2-.5-.6 0-.9.5-1.2.4-.7-.3.5-.9 1.4-.8 3.5.2 3.1 1.6 4.9.9 4.5-1.7-.1-.9.2-1.5.7-1.1.5.3.7.9.4 1.4-.3.4.2 1.3 1 2 1.3 1.1 1.4 1 .8-.6-.6-1.7-.5-1.7 1-.5.9.7 1.7 1 1.7.6s.6-.3 1.3.3c1.2 1 4 .2 3.8-1.2-.3-1.9 0-2.6 1-2.6.8 0 .8.4 0 1.4-.7.8-.8 1.6-.4 1.9 1.6.9 7.3.6 7.3-.4 0-.6.5-.7 1-.4.6.3.5-.6-.2-2.1-1-2.2-1-2.8 0-3.2 1-.3 1-.7.2-1.8-.7-.7-1-3-.7-5.1.3-2.2 0-4.4-.6-5.2-1-1.2-.9-1.3.2-.6 1.1.6 1.3.4.8-.8-.3-.9-.2-1.9.2-2.2 1-.6.3-4.3-1-5-.4-.3-.7.9-.6 2.6.1 1.8-.3 3.4-1 3.6-1.2.4-1.2-1 0-7.2.2-1.1-.1-2.4-.7-2.8-.7-.6-.6-.7.4-.4.8.2 1.4.9 1.3 1.5-.1.5.4 1.3 1.3 1.6 1.1.4 1.2.1.6-1.2-1.4-2.7-1.3-16.2 0-16.2.7 0 .3-.6-.7-1.4-1.1-.8-2.4-1.2-3-.8-.5.3-.4-.2.4-1.1 1.4-1.8 2.6-2.3 1.6-.8-.3.5-.1 1.2.4 1.5.5.3 1.2-.1 1.5-1 .3-.8 1.1-1.2 1.7-.8.8.5.9.3.4-.7-.8-1.2-.6-1.2.8 0 1.1.9 1.7 1 1.7.2 0-.6.5-1.1 1.1-1.1.5 0 .7.6.3 1.2-.4.7-.4 1 .1.6.4-.4 1.5-.2 2.3.5 1.3.9 1.4.9.8 0-.4-.7-.2-2.1.4-3 .8-1.4 1-1.4.9-.3-.3 2.9.1 4.1 1.1 3.5.5-.3.7-1.3.4-2.3-.5-1.3-.4-1.4.4-.3.5.7 1.5 1.1 2.1.7.7-.5.9-.1.5 1.1-.3 1-.2 1.4.3.8 1-1.3 6.6-1.7 5.8-.5-.4.6-.1 1 .4 1 .6 0 1.1-.4 1.1-.9s.9-1.1 2-1.4c1.1-.3 2-.1 2 .5 0 .5.5.6 1 .3.6-.3 1 0 1 .7 0 .8.4.6 1.1-.4 1.2-2.1 4.9-4.3 4.9-3 0 .6-.9 1.2-2 1.5-1.1.3-2 1.1-2 1.9 0 .8.3.9.8.3.8-1.3 2.2-1.3 4.1-.1 1 .7 1.2.3.6-1.5-.5-1.8-.4-2 .4-.9 1.2 1.8 6.1 2.3 6.2.7.1-.7.4.1.8 1.8.3 1.6.6 12.4.5 24-.1 19.7 0 21.1 1.8 21.3 4.2.4 4.8.6 4.8 1.3 0 .4-.5.9-1.2 1.1-.6.2-.8.9-.4 1.6 1.1 1.7 3.5.3 3.1-1.9-.2-1.1 0-1.7.6-1.4.5.4.7 1 .4 1.5-.3.4.2 1.3 1 2 1.3 1.1 1.4 1 .9-.6-.6-1.5-.4-1.7.6-.7.9.8 2.9 1 5.8.6s4.3-.3 3.9.4c-.7 1.2 2.9 1 4-.2.5-.4.2-.5-.6 0-.9.5-1.2.4-.7-.3.5-.9 1.4-.8 3.5.2 3.1 1.6 4.9.9 4.5-1.7-.1-.9.2-1.5.7-1.1.5.3.7.9.4 1.4-.3.4.2 1.3 1 2 1.3 1.1 1.4 1 .9-.6-.6-1.5-.4-1.7.6-.7.9.8 2.9 1 5.8.6s4.3-.3 3.9.4c-.3.5 0 1 .7 1 .8 0 1.2-.6.9-1.4-.8-2 2.6-2.7 4.6-.9 2 1.8 4.1 2.1 4.1.5 0-.5-.6-.7-1.2-.3-1 .6-1 .4-.1-.7 1.8-1.9 1.6-3.4-.2-1.9-1.1.9-1.9 1-2.6.3-.8-.8-.7-1.3.2-1.8.8-.5 1-.4.5.3-1 1.6 1.1 1.5 2.1-.1.4-.6.9-2.9.9-5 .2-3-.3-4-2-4.8-2.1-.9-2.1-1 .2-.5 2.7.5 2.7.2.1-3.3-2.1-2.9-1.9-5.1.4-5.1.7 0 .6.4-.3 1.1-1.1.8-1.2 1.2-.2 1.6.6.2 1 .8.7 1.3-.3.4.2 1.1 1 1.4 1.3.4 1.4.2.5-1.4-.8-1.4-.7-2.6.1-4.1.6-1.2.7-1.9.2-1.6-.4.3-.8-3.4-.9-8.3 0-5.3-.5-9.4-1.2-10.2-1.2-1.5-.7-2.8 1.2-2.8.6 0 .5.4-.3.9s-.9 1.1-.3 1.5c.5.3 1.2-.1 1.6-.9.3-.8.1-1.7-.4-2-.6-.4-.5-1.4.3-2.5 1.3-2.2 3.3-2.8 2.1-.8-.4.7-.4 1 .1.6.4-.4 1.5-.2 2.3.5 1.3.9 1.4.9.8 0-.4-.7-.2-2.1.4-3 .8-1.4 1-1.4.9-.3-.3 2.9.1 4.1 1.1 3.5.5-.3.7-1.3.4-2.3-.5-1.3-.4-1.4.4-.3.5.7 1.5 1.1 2.1.7.7-.5.9-.1.5 1.1-.3 1-.2 1.4.3.8 1-1.3 6.6-1.7 5.8-.5-.4.6-.1 1 .4 1 .6 0 1.1-.4 1.1-.9s.9-1.1 2-1.4c1.1-.3 2-.1 2 .5 0 .5.5.6 1 .3.6-.3 1 0 1 .7 0 .8.4.6 1.1-.4 1.2-2.1 4.9-4.3 4.9-3 0 .6-.9 1.2-2 1.5-1.1.3-2 1.1-2 1.9 0 .8.3.9.8.3.8-1.3 2.2-1.3 4.1-.1 1 .7 1.2.3.7-1.5-.6-2-.5-2.1.4-.7.8 1.3 2.1 1.6 5.1 1.3 2.4-.3 3.7 0 3.4.5-.4.6-.1 1 .4 1 .6 0 1.1-.5 1.1-1.1 0-.6.9-.9 2-.6 1.3.3 1.8.1 1.3-.6-.4-.7.1-.6 1 .2 1.1.9 1.7 1 1.7.2 0-.6.5-1.1 1.1-1.1.5 0 .7.6.3 1.2-.4.7-.4 1 .1.6.4-.4 1.5-.2 2.3.5 1.3.9 1.4.9.8 0-.4-.7-.2-2.1.4-3 .8-1.4 1-1.4.9-.3-.3 2.9.1 4.1 1.1 3.5.5-.3.7-1.3.4-2.3-.5-1.3-.4-1.4.4-.3.5.7 1.5 1.1 2.1.7.7-.5.9-.1.5 1.1-.3 1-.2 1.4.3.8 1-1.3 6.6-1.7 5.8-.5-.4.6-.1 1 .4 1 .6 0 1.1-.5 1.1-1 0-1.3 3.7-1.3 4.4-.1.4.5 1.4.8 2.4.6.9-.2 2.5-.4 3.5-.4 1.2-.1 1.6-.5 1.1-1.4-.5-.8-.2-.8.9.2 1.1.9 1.7 1 1.7.2 0-.6.5-1.1 1.1-1.1.5 0 .7.6.3 1.2-.4.7-.4 1 .1.6.4-.4 1.5-.2 2.3.5 1.3.9 1.4.9.8 0-.4-.7-.2-2.1.4-3 .8-1.4 1-1.4.9-.3-.3 2.9.1 4.1 1.1 3.5.5-.3.7-1.3.4-2.3-.5-1.3-.4-1.4.4-.3.5.7 1.5 1.1 2.1.7.7-.5.9-.1.5 1.1-.3 1 .4.2 1.5-1.7 2-3.5 3-3.5 1.1.1-.7 1.3-.7 1.9 0 1.9.5 0 1-.6 1.1-1.3.1-.6.4.1.8 1.8.4 1.6.6 12.6.6 24.3-.1 18.5.1 21.2 1.5 21.1 2-.3 5 1.1 5 2.3 0 .5-.4.6-1 .3-.5-.3-1-.2-1 .4 0 .7 1.7.8 4.7.4 2.9-.4 4.4-.3 4 .4-.7 1.2 2.9 1 4-.2.5-.4.2-.5-.6 0-.9.5-1.2.4-.7-.3.5-.9 1.4-.8 3.5.2 3.1 1.6 4.9.9 4.5-1.7-.1-.9.2-1.5.7-1.1.5.3.7.9.4 1.4-.3.4.2 1.3 1 2 1.3 1.1 1.4 1 .8-.6-.6-1.7-.5-1.7 1-.5.9.7 1.7 1 1.7.6s.6-.3 1.3.3c1.2 1 4 .2 3.8-1.2-.3-1.9 0-2.6 1-2.6.8 0 .9.4 0 1.3-1.1 1.4-.5 2.7 1.1 2.7.5 0 .6-.5.2-1.2-.4-.6.3-.4 1.6.5 2.7 1.9 5.2.7 4.3-2.1-.4-1.4-.3-1.5.5-.2.6.8.9 1.7.6 2.1-.2.5.8.7 2.3.5 1.6-.1 3.4.2 4.1.7 1 .8 1.1.4.2-1.9-.9-2.9-.9-2.9.6-.6 2.4 3.3 3.9 2.7 4-1.6 0-2 .4-4.6.8-5.7.6-1.6.6-1.7-.3-.5-.9 1.1-1.1.2-.9-4 .3-5 .1-5.5-1.7-5.2-1.6.2-1.7.1-.5-.7.8-.5 1.8-.7 2.2-.5.9.6 1-.8.2-3-.3-.8-1.3-1.2-2.2-.9-1.4.4-1.4.3-.3-.5.8-.6 2-.8 2.7-.5 1.4.5 1.3-2.1-.1-3.4-.4-.4-.6-.3-.2.2.3.6-.4 1.2-1.5 1.2l-2.1.2 2.1-1.5c2.8-1.9 2.5-7-.3-6.6-1.6.2-1.7.1-.5-.7.8-.5 1.8-.7 2.2-.5.9.6 1-.8.2-3-.3-.8-1.3-1.2-2.2-.9-1.4.4-1.4.3-.3-.5.8-.6 2-.8 2.7-.5 1.4.5 1.3-2.1-.1-3.4-.4-.4-.6-.3-.2.2.3.6-.4 1.2-1.6 1.2-1.9.2-1.9 0 .5-1.5 2.5-1.6 2.6-1.9 1-3-1.6-1.2-1.5-1.2.2-.7 1.5.4 1.7.3.7-.8-.9-1.2-.5-1.4 2.4-1.3 1.9.1 3.7.5 4.1.8.3.4 1.7.2 3.1-.5 1.9-.8 2.6-.8 3.2.2.6.9 1 1 1.5.2.4-.6 1.2-.9 1.7-.6.5.4.9.1.9-.4 0-.6.5-1.1 1.1-1.1.5 0 .7.6.3 1.2-.4.7-.4 1 .1.6.4-.4 1.5-.2 2.3.5 1.3.9 1.4.9.8 0-.4-.7-.2-2.1.4-3 1-1.6 1.1-1.6.6-.1-.2.9.2 2.2 1.1 3 1.4 1.1 1.5 1 .9-1.2-.6-1.9-.5-2.1.3-1 .9 1.3 2.8 1.9 6.6 2.1.6 0 2-.3 3.3-.6 1.4-.5 2.2-.3 2.2.4s.5.9 1.3.4c.6-.4 2.2-.8 3.5-.9 2.6-.1 2.4-2.4 2.6 25.1.1 20.1.2 21 2.1 21.3 4.8.7 6.5 1.3 6.5 2.3 0 .8-.5.8-1.5-.1-.8-.6-2-.8-2.7-.4-2 1.3 4 2.4 9 1.7 3.7-.5 4.4-.4 3.6.8-.6 1-.1 1 1.7-.3 1.7-1.1 3.1-1.3 4-.7.8.5 3.6.6 6.3.2 4-.5 4.8-.4 4 .8-.6 1-.2 1 1.6-.2 2.2-1.4 2.9-1.4 5.8-.2 1.9.8 3.1.9 2.7.4-.3-.6-.1-1.1.6-1.1.8 0 .8-.5-.2-1.8-.7-.9-.9-1.4-.5-1 .5.4 1.6.2 2.5-.5 1.3-1 1.4-1 .5.3-1.5 2.1-1.1 4.6.6 4.2 4.1-1 5-1 5-.1 0 .6.5.7 1 .4 1.4-.9.1-2.8-1.4-2.2-.7.3-1.3-.1-1.3-.9 0-1.2.4-1.2 2.3.1 3.3 2.1 3.4 2 3.1-2.5-.2-2.2 0-4.5.4-5.2.4-.7.5-1.7.1-2.3-.3-.5-.8-1.9-.9-3-.2-1.1-1-2.5-1.8-3.1-.8-.6-1.5-1.5-1.5-1.9 0-.5.9 0 2 1 2.2 2 2.8.8.7-1.4-1-1.1-.9-1.2.2-.6s1.3.3.9-1.2c-.3-1.1-.1-2.7.3-3.6.6-.9.5-1.8 0-2.2-.5-.3-.8-1.5-.6-2.7.3-1.2-.1-2.8-.8-3.7-1-1.2-.9-1.3.2-.6 1.1.6 1.3.4.8-.8-.3-.9-.2-1.9.2-2.2 1-.6.3-4.3-1-5-.4-.3-.7.9-.6 2.6.1 1.8-.3 3.4-1 3.6-.9.3-1.1-.5-.7-2.9.3-1.8.6-3.8.6-4.5.1-.9.7-.9 2.2-.1 1.8.9 1.9.9 1-.3-.5-.8-.9-2.4-.8-3.6 0-1.2-.2-2.2-.5-2.1-2.7.3-3.8-.5-3.7-2.4l.1-2.3-20.5-.2c-11.3 0-21.7-.1-23.2-.2-2.6-.1-2.7-.3-2.2-4.2.4-2.7.3-3.9-.4-3.5-.5.3-1.2 0-1.5-.8-.4-1 .1-1.2 1.6-.9 1.3.3 1.8.1 1.1-.4-.6-.4-.9-1.7-.7-2.8.2-1.1.4-2.7.4-3.5-.1-.8-.1-3-.1-4.8 0-1.8-.4-3-.9-2.7-.5.2-1.1-.1-1.4-.9-.4-1 .1-1.2 1.6-.9 1.6.3 1.8.2.9-.5-1.4-1-1.5-1.8-.2-4.2.4-.8.4-2.4 0-3.5s-.3-2.8.2-3.9c.7-1.3.7-1.6-.1-1.2-1.2.8-1.1-2.1.2-4.1.9-1.4.8-1.5-2.5-1.7-1.7-.1-2.3-.7-2.3-2.6v-2.5l-22-.2c-25.2-.3-28.7-.4-26.2-1 1.1-.3 1.6-1.1 1.3-1.8-.3-1 0-1.2 1.1-.8 1.2.5 1.4.3.8-.7-.4-.7-.8-2.2-.9-3.4-.1-1.5-.7-2-2.1-1.8-1.6.2-1.7.1-.5-.7.8-.5 1.8-.7 2.2-.5.9.6 1-.8.2-3-.3-.8-1.3-1.2-2.2-.9-1.4.4-1.4.3-.3-.5.8-.6 2-.8 2.7-.5 1.4.5 1.3-2.1-.1-3.4-.4-.4-.6-.3-.2.2.3.6-.4 1.2-1.5 1.2l-2.1.2 2.1-1.5c2.8-1.9 2.5-7-.3-6.6-1.6.2-1.7.1-.5-.7.8-.5 1.8-.7 2.2-.5.9.6 1-.8.2-3-.3-.8-1.3-1.2-2.2-.9-1.4.4-1.4.3-.3-.5.8-.6 2-.8 2.7-.5 1.4.5 1.4-1.4-.1-3.6-.5-1-.4-1.6.4-1.9.9-.3.9-.7 0-1.8-.6-.8-.9-2.7-.7-4.4.4-2.7.2-3-1.6-2.5-1.9.5-1.9.5-.3-.5 1.3-.8 2.2-.9 3.1-.1.7.6 1.6.8 2 .4.4-.4.4.1 0 1.1-.6 1.5-.4 1.7.7 1.1 2.2-1.4 7-1.5 6.3-.2-.5.9-.3.9.6 0 .8-.8 1.9-.9 3-.3.9.5 2.2.5 3.1-.1 1.9-1.2 3.2-1.1 2.3.2-.4.8-.1.8 1.2.2 1.1-.5 2.6-.9 3.4-.8.8.1 2.1-.3 2.8-.9.7-.5 1.2-.5 1.1 0-.4 2.5.3 2.6 1.7.4 1-1.7 1.3-1.9.9-.5-.3 1.1-.3 1.6.1 1.2.4-.4 1.4-.1 2.2.6 1.3.9 1.4.9.8-.1-.8-1.3 1.9-1.3 4.1.1.9.5 1.1.3.7-.6-.7-2 1.5-3.2 2.9-1.7.9 1 .8 1.2-.5.7-1.2-.4-1.5-.2-1.1.9.5 1.3.9 1.3 3-.2 1.5-.9 2.2-1.1 1.8-.3-.5.8-.4 1 .3.5.7-.4 1.2-.1 1.2.6 0 .8.3.9.8.3 1.1-1.5 4.6-1.9 3.6-.4-.4.8-.3 1 .5.5.9-.6.9-1.2-.1-2.4-.7-1-.1-.7 1.3.5 1.9 1.8 2.8 2 3.7 1.1.7-.7 1.2-.8 1.2-.4 0 .5.7.3 1.6-.4.8-.8 1.4-.9 1.3-.4-.4 2.5.3 2.6 1.7.4 1-1.7 1.3-1.9.9-.5-.3 1.1-.3 1.6.1 1.2.4-.4 1.4-.1 2.2.6 1.3.9 1.4.9.8-.1-.8-1.3 1.9-1.3 4.1.1.9.5 1.1.3.7-.6-.7-2 1.5-3.2 2.9-1.7.9 1 .8 1.2-.5.7-1.2-.4-1.5-.2-1.1.9.5 1.3.9 1.3 3-.2 1.5-.9 2.2-1.1 1.8-.3-.5.8-.4 1 .3.5.7-.4 1.2-.1 1.2.6 0 .8.3.9.8.3 1.1-1.5 4.6-1.9 3.6-.4-.4.8-.3 1 .5.5.9-.6.9-1.2-.1-2.4-.7-1 .1-.6 1.6.8 1.6 1.4 2.6 1.9 2.2 1.3-.4-.7-.2-2.1.4-3 .8-1.4 1-1.4.9-.3-.4 3.7 0 4.3 1.8 2.9 1.3-1.1 1.7-1.1 2-.1.3.6.9 1 1.3.7.5-.3.6-1.3.3-2.2-.5-1.3-.1-1.2 1.7.5 1.6 1.5 2.7 1.9 3.5 1.2.7-.5 1.4-.8 1.6-.6.8.9.4-11-.5-12.3-.7-1-.6-1.2.4-.6s1.2.4.7-.8c-.3-.9-.2-1.9.2-2.2 1-.6.3-4.3-1-5-.4-.3-.7.9-.6 2.6.1 1.8-.3 3.4-1 3.6-1.2.4-1.2-1 0-7.2.2-1.1-.1-2.4-.7-2.8-.7-.6-.6-.7.4-.4.8.2 1.4.9 1.3 1.5-.1.5.4 1.3 1.3 1.6 1.1.4 1.2.1.6-1.2-.5-.9-.9-5.7-.9-10.6-.1-7.1-.4-9.2-1.7-10.1-.9-.7-1.6-1.6-1.6-2 0-.5.9 0 2 1 2.2 2 2.8.8.8-1.4-1.1-1.1-1-1.2.1-.6s1.3.3.9-1.2c-.3-1.2-.2-2.7.3-3.4.4-.7.5-1.8.1-2.4-.3-.5-.8-1.9-.9-3-.2-1.1-1-2.5-1.8-3.1-.8-.6-1.5-1.5-1.5-1.9 0-.5.9 0 2 1 2.2 2 2.8.8.8-1.4-1.1-1.1-1-1.2.1-.6s1.3.3.9-1.2c-.3-1.1-.1-2.7.3-3.6.6-.9.5-1.8 0-2.2-.5-.3-.8-1.5-.6-2.7.3-1.2-.1-2.8-.8-3.7-1-1.2-.9-1.3.2-.6 1.1.6 1.3.4.8-.8-.3-.9-.2-1.9.2-2.2 1-.6.3-4.3-1-5-.4-.3-.7.9-.6 2.6.1 1.8-.3 3.4-1 3.6-1.2.4-1.2-1 0-7.2.2-1.1-.1-2.4-.7-2.8-.7-.6-.6-.7.4-.4.8.2 1.4.9 1.3 1.5-.1.5.4 1.3 1.3 1.6 1 .4 1.3.2.7-.7-.4-.6-.9-3.7-1-6.7-.2-7.4-.2-7.2-1.3-6.5-.5.3-.6 1.3-.3 2.3.3.9.3 1.4-.1 1.1-.6-.6-1.2-2.5-2-6.9-.2-1.3-3.5-1.5-21.2-1.6-11.5-.1-21.9-.2-23.1-.3-2.2-.1-2.5-1.5-.9-4 .6-1 .5-1.2-.2-.7-1.4.9-1.6-1.3-.3-3.4.6-.8.7-1.9.3-2.5-1.1-1.7-1.1-3.5-.1-4.1.6-.4.6-1.1-.1-1.9-.8-1-.8-1.9-.1-3.3.6-1.1.8-2.2.4-2.6-1-1-1-6 0-8.1.9-1.8.9-1.9-.7-.6-1 .8-1.4 2.1-1.1 3 .5 1.3.4 1.3-.6.4-.9-.9-.9-1.5 0-2.6.6-.8.9-2.3.5-3.3-.4-1.4-.3-1.6.4-.5.8 1.1 1 1.1 1.4 0 .3-.8-.4-2-1.6-2.7-1.3-.8-1.5-1.1-.4-.8 1.3.4 1.6 0 1.2-1.7-.2-1.1.2-2.5.9-2.9.9-.6.9-.8-.1-.8-.7 0-1.1-.4-.7-.9.3-.6-.4-.8-1.5-.6-1.2.2-2-.2-2.1-1.1-.1-.8-.2-2-.3-2.7-.1-.9-5.1-1.2-21.1-1.4-25.1-.2-27.5-.3-27.5-1.5 0-.5.4-.7.9-.4.5.3 1.1-.4 1.4-1.7.2-1.2.8-3.1 1.2-4.2.5-1.6.5-1.7-.4-.5-.7 1.1-1 .1-.9-3.7.1-3.1-.4-5.9-1.3-7-1.3-1.6-1.3-1.7.4-.4 1.6 1.3 1.7 1.1 1.5-2.3-.3-3.5-1.8-5-2.7-2.5-.2.6.1.9.6.6.5-.3 1 0 1 .8 0 2-1.3 1.9-2.1-.1-.7-1.9 1.2-4.7 2.5-3.8.5.3.9 0 .9-.6s-1-1.5-2.2-2.1l-2.3-1 2.3.5c2.2.4 3-.8 1.2-1.9-1.9-1.2-3.1-4.3-1.8-5.1.7-.4.8-.3.4.4s-.2 1.2.4 1.2c.6 0 .9.4.6.9-.3.5.1 1.2.9 1.5 1.2.4 1.3.2.7-1.2-.5-.9-.8-4.1-.7-7 .1-4.6-.1-5.1-1.7-4.6-1.8.5-2.1 0-2.1-3.7 0-1.4-2.5-1.6-22.1-1.5-12.2.1-22.8 0-23.7-.2-1.7-.4-1.9-1.8-.6-3.9.6-.9.3-1.1-1-.6-1.5.6-1.6.4-.6-.8 1.5-1.8 1.5-11.2.1-10.3-.6.4-.6-.1 0-1.3.6-1.1.9-2.8.8-3.9-.2-1 .1-2.5.7-3.2.7-.9.6-1.1-.5-.7-.8.3-2.1-.2-2.9-1.2-1.3-1.6-1.2-1.7.4-.4 1.2.9 1.7 1 1.7.2 0-.7.5-.9 1.2-.5s.8.3.4-.5c-.4-.6-1.3-.8-1.9-.4-.9.5-.9.3-.1-.8 1.5-1.8 1.6-12.1.1-11.2-.6.4-.7.1-.2-.7 1.5-2.4 1.5-6.2 0-5.6-1.7.6-3.3-1.3-3-3.5.2-1.3-5.2-1.5-50.9-1.5h-51.2v24.8zM309.5 62c.3.6-.1.7-.9.4-1.8-.7-2.1-1.4-.7-1.4.6 0 1.3.4 1.6 1zm0 5.8c-.3.3-1.1 0-1.8-.7-.9-1-.8-1.1.6-.5 1 .3 1.5.9 1.2 1.2zm-.1 4.3c-.8 1.4-2.1 1.1-2.1-.5 0-.8.6-1.2 1.4-.9.7.3 1 .9.7 1.4zm-.7 11.3c-.3.7-.1 1.8.4 2.3.6.6.5 1-.4 1-.7 0-1.3-1.1-1.3-2.4 0-1.3.4-2.3.9-2.3s.7.6.4 1.4zm.8 8.4c-.3.3-1.1 0-1.8-.7-.9-1-.8-1.1.6-.5 1 .3 1.5.9 1.2 1.2zm.5 4.4c0 .6-.6.5-1.5-.2-.8-.7-1.5-1.4-1.5-1.6 0-.2.7-.1 1.5.2.8.4 1.5 1.1 1.5 1.6zm0 2.3c0 .2-.6.5-1.3.8-.8.3-1.4-.1-1.4-.8 0-.7.6-1.1 1.4-.8.7.3 1.3.6 1.3.8zm-1.2 5.6c-.3.8-.7.3-1.1-1-.4-1.7-.3-2.1.5-1.3.5.5.8 1.6.6 2.3zm49.9 13.1c-.3.7-.5.2-.5-1.2s.2-1.9.5-1.3c.2.7.2 1.9 0 2.5zm0 24c-.3.7-.5.2-.5-1.2s.2-1.9.5-1.3c.2.7.2 1.9 0 2.5zm1.6 1.9c-.6.6-.9 1.9-.6 2.8.4 1.3.3 1.4-.5.1-1-1.4.1-4 1.6-4 .3 0 .1.5-.5 1.1zm.4 7.5c-.3.3-1.2.4-1.9.1-.8-.3-.5-.6.6-.6 1.1-.1 1.7.2 1.3.5zM410 166c0 .5-.5 1-1.1 1-.5 0-.7-.5-.4-1 .3-.6.8-1 1.1-1 .2 0 .4.4.4 1zm-.6 16c-.6.6-1 .3-1-1s.4-1.6 1-1c.7.7.7 1.3 0 2zm2 1.8c.2.4-.5.9-1.7.9-1.7.2-1.9 0-.7-.7 1.8-1.2 1.8-1.2 2.4-.2zm0 6.1c.3.5-.1 1.1-.9 1.4-.9.4-1.2.1-.8-.9.6-1.6 1-1.7 1.7-.5zm-1.4 4.3c0 .6-.6.5-1.5-.2-.8-.7-1.5-1.4-1.5-1.6 0-.2.7-.1 1.5.2.8.4 1.5 1.1 1.5 1.6zm.4 7.4c.3.8.2 1.2-.4.9-.6-.3-1-1-1-1.6 0-1.4.7-1.1 1.4.7zm-.6 3.9c-.3.3-.9-.2-1.2-1.2-.6-1.4-.5-1.5.5-.6.7.7 1 1.5.7 1.8zM172 210.1c-1.6 2.8 1.4 3 5.1.3 2.5-1.8 3.6-2.1 4.6-1.2.7.6 1.1 1.4.7 1.7-.4.3-.9 0-1.1-.6-.3-1-1-1-2.4-.2-2.7 1.4-1.5 2.9 1.9 2.3 1.5-.3 3.5-.6 4.5-.7.9-.1 1.7-.5 1.7-.9s.5-.8 1.1-.8c.5 0 .7.6.3 1.2-.4.7-.4 1 .1.6.4-.4 1.4-.3 2.2.4 1.1.8 1.2.7.7-.6-.3-.9-.1-1.6.5-1.6s1.1.5 1.1 1.1c0 .5.5.7 1 .4.6-.3 1 0 1 .7s.7.2 1.6-1c.8-1.2 2.3-2.2 3.3-2.2 4 0 4.4 2.2 4.6 23.8 0 11.4-.2 21.4-.6 22.2-.6 1.3-3.8 1.5-22.1 1.3-24.7-.3-25.7-.3-24-1 .6-.3 1-.9.6-1.4-.3-.5-.2-.9.3-.8 2.1.4 2-.3-.2-2.6-1.4-1.3-2.5-3-2.5-3.7 0-.7 1 0 2.1 1.7 1.2 1.6 1.9 2.2 1.5 1.2-.3-.9-.1-1.7.5-1.7s.7-.5.4-1c-.4-.6-1.1-.8-1.6-.5-.5.4-.9.1-.9-.4 0-.6.5-1.1 1-1.1.6 0 1-.5 1-1 0-.7-.6-.7-1.8-.1-1.4.7-1.9.6-1.9-.4 0-.8.4-1.2.8-1 1.1.8 4-.6 3.4-1.6-.3-.4-1.2-.6-1.9-.3-.8.3-1.7.1-2-.4-.3-.5 0-.9.7-.8.6 0 1.3-.3 1.4-.8.1-.5.7-1.3 1.5-1.7 1-.7 1-.9 0-.9-.7 0-1-.4-.7-1 .4-.6-.1-.7-1.2-.3-1.4.5-1.3.2.5-1.6 1.7-1.7 2-2.6 1.2-4.1-.6-1-1.5-2.2-2-2.5-.6-.3-1-1.2-1-1.8 0-.7.7-.4 1.4.6.9 1.2 1.6 1.4 2.1.8.3-.6.2-1.1-.3-1.1s-.9-1.3-.9-3c0-1.6.5-2.7 1-2.3.6.3.7.1.3-.5-.4-.7-.9-2.2-1.1-3.4-.3-1.3-1.2-2.9-2.2-3.6-.9-.6-1.3-1.2-.8-1.2s1.7.8 2.8 1.7c1.9 1.7 2 1.7.8-.4-1.4-2.7-1.4-4.5 0-2.1.5.9 1.6 1.5 2.4 1.2.8-.4 1.2-1.1.8-1.8-.4-.6.1-.5 1 .3 1.4 1.1 2 1.1 3.2.1.8-.7 1.5-.9 1.5-.5s-.8 1.4-1.7 2.1c-1.6 1.3-1.5 1.3.7.5 1.4-.5 2.5-1.5 2.4-2.3-.1-.8.5-1.5 1.2-1.5.9 0 1 .5.4 1.8zm3.3-.1c-.9 1.1-1.9 1.7-2.1 1.5-.6-.6 1.8-3.5 2.9-3.5.5 0 .1.9-.8 2zm11.7-1.5c0 .7-3 1.3-3.4.7-.3-.4.4-.9 1.5-.9 1-.1 1.9 0 1.9.2zm9 .9c-.7.7-1.3.7-2 0-.6-.6-.3-1 1-1s1.6.4 1 1zm115.6-.5c.8-.7 1.4-.7 1.4-.1 0 1.2-2.6 2.3-3.4 1.5-.3-.4-.6-1.1-.5-1.7 0-.6.3-.5.6.2.4 1 .8 1 1.9.1zm14.4.1c-.8.5-1.9 1-2.5 1-.5 0-.3-.5.5-1s2-1 2.5-1c.6 0 .3.5-.5 1zm6.1.9c-1.7 3 1.2 3.3 5 .5 2.5-1.8 3.6-2.1 4.6-1.2.7.6 1.1 1.4.7 1.7-.4.3-.9 0-1.1-.6-.3-1-1-1-2.4-.2-2.7 1.4-1.5 2.9 1.9 2.3 1.5-.3 3.5-.6 4.5-.7.9-.1 1.7-.5 1.7-.9s.5-.8 1.1-.8c.5 0 .7.6.3 1.2-.4.7-.4 1 .1.6.4-.4 1.5-.2 2.3.5 1.3.9 1.4.9.8 0-.4-.7-.2-2.1.4-3 .8-1.4 1-1.4.9-.3-.3 2.9.1 4.1 1.1 3.5.5-.3.6-1.3.3-2.3-.5-1.5-.4-1.5.8.1 1.1 1.4 1.4 6.4 1.4 23-.1 11.7-.4 21.7-.7 22.2-.9 1.5-44.3 1.2-46.1-.3-.7-.7-1.6-1-1.8-.7-.3.2-.5-.7-.5-2 0-1.4.4-2.5.9-2.5s.7.6.4 1.4c-.3.8.1 2 .9 2.7 1.2 1 1.4.8 1-1.2-.2-1.3.1-3 .7-3.7.7-.9.6-1.1-.5-.7-.8.3-2.1-.2-2.9-1.2-1.3-1.6-1.2-1.7.4-.4 1.2.9 1.7 1 1.7.2 0-.7.5-.9 1.2-.5s.8.3.4-.5c-.4-.6-1.3-.8-1.9-.4-.9.5-.9.3-.1-.8.7-.8 1.1-3.4 1-5.9-.2-2.5.2-5.1.7-5.8.7-.9.6-1.1-.5-.7-.8.3-2.1-.2-2.9-1.2-1.3-1.6-1.2-1.7.4-.4 1.2.9 1.7 1 1.7.2 0-.7.5-.9 1.2-.5s.8.3.4-.5c-.4-.6-1.3-.8-1.9-.4-.9.5-.9.3-.1-.8 1.5-1.9 1.5-11.1 0-10.2-.7.4-.7.1.1-.7.6-.7.9-1.9.6-2.8-.5-1.1-.3-1.3.7-.7.9.5 1.1.4.6-.4-.4-.6-1.2-.8-1.8-.5-.7.4-.8.2-.4-.4.4-.7 1.3-1.2 2.1-1.2s1.8-.7 2.3-1.6c.8-1.5 1-1.5 1.5 0 .5 1.1.3 1.5-.5 1-.7-.4-.8-.3-.4.4.4.6 1.3.9 2.1.6.8-.4 1.2-1.1.8-1.8-.4-.6.1-.5 1 .3 1.6 1.2 1.7 1.2 1.1-.5-.5-1.7-.4-1.7.6-.2.6 1 1.7 1.5 2.7 1.1 1.1-.4 1.4-.3.9.5-.4.7-.2 1.2.3 1.2.6 0 1.1-.4 1.1-.9s.9-1.1 2-1.4c1.1-.3 1.8-.1 1.4.4-.3.5-.1.9.5.9s1.5-.9 2.1-2c.6-1.1 1.3-2 1.6-2 .2 0 0 .9-.5 1.9zm3.2.1c-.9 1.1-1.9 1.7-2.1 1.5-.6-.6 1.8-3.5 2.9-3.5.5 0 .1.9-.8 2zm11.7-1.5c0 .7-3 1.3-3.4.7-.3-.4.4-.9 1.5-.9 1-.1 1.9 0 1.9.2zm-38 2.9c0 .3-.4.8-1 1.1-.5.3-1 .1-1-.4 0-.6.5-1.1 1-1.1.6 0 1 .2 1 .4zm-.6 5.6c-.6.6-1 .3-1-1s.4-1.6 1-1c.7.7.7 1.3 0 2zm-149.9-1c-.3.5-1.2 1-1.8 1-.7 0-.6-.4.3-1 1.9-1.2 2.3-1.2 1.5 0zm300.2 4.2c-.3.8-.6.5-.6-.6-.1-1.1.2-1.7.5-1.3.3.3.4 1.2.1 1.9zm-150.2-.3c.3.5.2 1.2-.3 1.5-.5.3-.9-.1-.9-.9 0-1.7.3-1.9 1.2-.6zm-150.5.5c0 .2-.7.7-1.6 1-.8.3-1.2.2-.9-.4.6-1 2.5-1.4 2.5-.6zm150.9 4.2c-1.4 1.3-1.6 1.3-1.6 0 0-.8.4-1.3.9-1 .4.3.8 0 .8-.7s.3-.9.7-.5c.4.3 0 1.3-.8 2.2zm-152.2 4.6c-.3.8-.6.5-.6-.6-.1-1.1.2-1.7.5-1.3.3.3.4 1.2.1 1.9zm2.7.7c.3.5-.7 1.6-2.2 2.5l-2.7 1.7 2.2-1.9c1.2-1.1 1.9-2.2 1.6-2.6-.4-.3-.4-.6 0-.6.3 0 .8.4 1.1.9zm149.3 5.5c-.3.7-.1 1.8.4 2.3.6.6.5 1-.4 1-.7 0-1.3-1.1-1.3-2.4 0-1.3.4-2.3.9-2.3s.7.6.4 1.4zm-150.3 2.2c.3.8.2 1.2-.4.9-.6-.3-1-1-1-1.6 0-1.4.7-1.1 1.4.7zm302.1-.6c.3.6-.1.7-.9.4-1.8-.7-2.1-1.4-.7-1.4.6 0 1.3.4 1.6 1zm-.5 2.4c0 .3-.4.8-1 1.1-.5.3-1 .1-1-.4 0-.6.5-1.1 1-1.1.6 0 1 .2 1 .4zm1.4 2.4c.2.4-.5.9-1.7.9-1.7.2-1.9 0-.7-.7 1.8-1.2 1.8-1.2 2.4-.2zm-.7 3.6c0 .8-.6 1.2-1.5.9-1.1-.5-1.1-.7 0-1.4.7-.5 1.3-.9 1.4-.9 0 0 .1.6.1 1.4zm-304 7.8c-.3.8-.6.5-.6-.6-.1-1.1.2-1.7.5-1.3.3.3.4 1.2.1 1.9zm302.4 3.1c-1 .9-1.1.8-.5-.6.3-1 .9-1.5 1.2-1.2.3.3 0 1.1-.7 1.8zm2.3 1.5c.2.4-.5.9-1.7.9-1.7.2-1.9 0-.7-.7 1.8-1.2 1.8-1.2 2.4-.2zm-.7 3.6c0 .8-.6 1.2-1.5.9-1.1-.5-1.1-.7 0-1.4.7-.5 1.3-.9 1.4-.9 0 0 .1.6.1 1.4zm-.9 11.2c0 1.7-.3 2.2-.8 1.3-.5-.6-.6-1.8-.3-2.6.8-1.9 1.1-1.6 1.1 1.3zm0 5.9c-.3.3-.9-.2-1.2-1.2-.6-1.4-.5-1.5.5-.6.7.7 1 1.5.7 1.8zm-1.1 5.7c-.3.8-.6.5-.6-.6-.1-1.1.2-1.7.5-1.3.3.3.4 1.2.1 1.9zm1.8 16.8c.3.6-.1.7-.9.4-1.8-.7-2.1-1.4-.7-1.4.6 0 1.3.4 1.6 1zm0 3c.3.6-.1.7-.9.4-1.8-.7-2.1-1.4-.7-1.4.6 0 1.3.4 1.6 1zm-.5 2.5c1.1 1.3 1 1.4-.4.9-.9-.3-1.6-1-1.6-1.5 0-1.3.6-1.1 2 .6zm-375.3 2.7c-.3.8-.6.5-.6-.6-.1-1.1.2-1.7.5-1.3.3.3.4 1.2.1 1.9zm24 0c-.3.8-.6.5-.6-.6-.1-1.1.2-1.7.5-1.3.3.3.4 1.2.1 1.9zm40 0c-.3.8-.6.5-.6-.6-.1-1.1.2-1.7.5-1.3.3.3.4 1.2.1 1.9zm75.4.5c-1.2 2-1.4 1.4-.5-1.2.4-.9.9-1.4 1.1-1.1.3.2 0 1.3-.6 2.3zm12.6-.5c-.3.8-.6.5-.6-.6-.1-1.1.2-1.7.5-1.3.3.3.4 1.2.1 1.9zm24 0c-.3.8-.6.5-.6-.6-.1-1.1.2-1.7.5-1.3.3.3.4 1.2.1 1.9zm11.4.6c-1 1.9-.8 2 1.5 1.6 1.9-.3 2.4-.1 1.8.8-.6 1-.5 1 .7.1.9-.7 2-.8 2.9-.3.8.5 2.2.4 3.4-.2 1.5-.8 2.1-.8 2.4.1.2.6.9.8 1.5.4.7-.4 1.9-.8 2.7-.8.8 0 1.5-.7 1.4-1.6-.1-.9.5-1.6 1.2-1.6.9 0 1 .5.3 1.9-1 1.8 0 2.4 2.6 1.8.6-.1 1.5-.3 2.2-.3.7 0 1-.3.8-.7-.8-1.2 3.1-2.8 4.6-1.9 1.1.8 1 .9-.6.7-1.3-.2-2 .3-2.2 1.7-.1 1.1 0 1.5.3.8.3-.6 1.7-.9 3-.7 1.9.3 2.4.1 1.8-.8-.5-1-.4-1 .6-.1 1.1 1 1.4 6.3 1.4 23.5l.1 22.2-47.5-.2c-51.1-.2-54.5-.3-51.7-.9 1.1-.3 1.6-1.1 1.3-1.8-.3-1 .1-1.2 1.2-.9 1.5.5 1.5.4-.1-.6-.9-.6-2.1-.9-2.5-.6-.5.3-.9-.1-.9-.9 0-1 .5-1.1 1.8-.5 1.2.7 1.9.5 2.3-.6.4-.9.2-1.2-.5-.8-.8.4-.9-.1-.4-1.6s.3-2-.3-1.6c-.6.3-1.4.2-1.7-.4-.4-.6-.1-.9.6-.8.9.2 1.4-1.1 1.5-4 .2-4-.9-6.2-2.4-4.7-.3.3 0 1 .7 1.4.9.6 1 1.1.2 1.5-1.1.7-1.2.6-1.6-3.1-.2-1.9.1-2.1 1.6-1.2 2.7 1.4 2.4-.5-.3-2.5-2.3-1.6-2.3-1.6.5-.6 2.6.9 2.7.8 1.7-1-.7-1.4-.8-2.6 0-3.9 1.2-2.4 1.3-4.2.1-2.2-.6.9-1 .4-1.3-1.8-.4-2.4-.1-3.1.9-2.7 1.1.4 1.1.1.3-1.4-1.4-2.7.5-6.4 2.8-5.5 1.3.5 1.4.4.5-.6-1-1-1.5-.9-2.8.1-.8.7-1.5.8-1.5.2 0-1.5 2.9-2.3 4.8-1.3.9.4 2.3.6 3.1.3.9-.3 1.1 0 .6.8-.5.9-.4 1.1.4.6 1.7-1.1.2-2.9-1.8-2.1-1.3.5-1.3.4-.4-.6 1-1 1.8-.8 3.9 1.2 2.4 2.1 2.6 2.2 2 .4-.6-1.6-.5-1.7.5-.8 1 1 1.7.9 3.3-.5 1.1-.9 1.6-1.1 1.2-.5-.4.7-.2 1.3.4 1.3.6 0 .8.5.4 1.2-.6 1-.5 1 .7.1.9-.7 2-.8 2.8-.3 2 1.2 4.1.1 3.4-1.8-.4-1.2 0-1 1.4.5 2.2 2.4 3.5 2.1 2.6-.5-.4-1.3-.2-1.3.9.2 1.6 2 4.3 1.3 3.5-.8-.3-.7.1-1.3.8-1.3 1 0 1.1.5.4 1.9-1 1.8 0 2.4 2.6 1.8.6-.1 1.5-.3 2.2-.3.7 0 1-.3.8-.7-.8-1.2 3.1-2.8 4.6-1.9 1.1.8 1 .9-.6.7-1.3-.2-2 .4-2.3 1.7-.2 1.1 0 1.6.5 1 .9-1.2 2.8-1.3 3.8-.3 1.3 1.2 3.4-.3 2.8-2-.4-1.2 0-1 1.4.5 2.2 2.4 3.5 2.1 2.6-.5-.4-1.5-.3-1.5.6-.2 1.2 1.8 3.1 2 5 .6 1.1-.8 1.3-.8.8.1-.4.6-.3 1.4.2 1.7.5.3 1.4-.8 2.1-2.4.7-1.7 1.5-2.9 1.7-2.6.3.2 0 1.3-.6 2.4zm12.6-.6c-.3.8-.6.5-.6-.6-.1-1.1.2-1.7.5-1.3.3.3.4 1.2.1 1.9zm83.4.5c-1.2 2-1.4 1.4-.5-1.2.4-.9.9-1.4 1.1-1.1.3.2 0 1.3-.6 2.3zm12.6-.5c-.3.8-.6.5-.6-.6-.1-1.1.2-1.7.5-1.3.3.3.4 1.2.1 1.9zm72 0c-.3.8-.6.5-.6-.6-.1-1.1.2-1.7.5-1.3.3.3.4 1.2.1 1.9zM65 310.3c0 .8-.3.8-.9-.1-.6-1.1-1-1-1.5.4-.3.9-.9 1.4-1.3 1.1-.8-.9 1.7-3.8 2.8-3.1.5.3.9 1.1.9 1.7zm8-1.6c-.8.4-2 1.3-2.7 2.2-.7.9-1.3 1.1-1.3.5 0-1.5 2.2-3.4 4-3.3 1.3 0 1.3.1 0 .6zm20.7-.1c-.3.3-1.2.4-1.9.1-.8-.3-.5-.6.6-.6 1.1-.1 1.7.2 1.3.5zm11 1.4c-.1 2.1-1 1.8-1.3-.5-.1-.8.2-1.5.6-1.5.5 0 .8.9.7 2zm16.3-1.3c-.8.4-2 1.3-2.7 2.2-.7.9-1.3 1.1-1.3.5 0-1.5 2.2-3.4 4-3.3 1.3 0 1.3.1 0 .6zm16 0c-.8.4-2 1.3-2.7 2.2-.7.9-1.3 1.1-1.3.5 0-1.5 2.2-3.4 4-3.3 1.3 0 1.3.1 0 .6zm72 .4c0 1.5-1.8 1.9-2.3.6-.3-.8.1-1.4.9-1.4s1.4.4 1.4.8zm12.7-.5c-.3.3-1.2.4-1.9.1-.8-.3-.5-.6.6-.6 1.1-.1 1.7.2 1.3.5zm11 1.4c-.1 2.1-1 1.8-1.3-.5-.1-.8.2-1.5.6-1.5.5 0 .8.9.7 2zm16.3-1.3c-.8.4-2 1.3-2.7 2.2-.7.9-1.3 1.1-1.3.5 0-1.5 2.2-3.4 4-3.3 1.3 0 1.3.1 0 .6zm20.7-.1c-.3.3-1.2.4-1.9.1-.8-.3-.5-.6.6-.6 1.1-.1 1.7.2 1.3.5zm11 1.4c-.1 2.1-1 1.8-1.3-.5-.1-.8.2-1.5.6-1.5.5 0 .8.9.7 2zm16.3-1.3c-.8.4-2 1.3-2.7 2.2-.7.9-1.3 1.1-1.3.5 0-1.5 2.2-3.4 4-3.3 1.3 0 1.3.1 0 .6zm68.7-.1c-.3.3-1.2.4-1.9.1-.8-.3-.5-.6.6-.6 1.1-.1 1.7.2 1.3.5zm11 1.4c-.1 2.1-1 1.8-1.3-.5-.1-.8.2-1.5.6-1.5.5 0 .8.9.7 2zm13-1.4c-.3.3-1.2.4-1.9.1-.8-.3-.5-.6.6-.6 1.1-.1 1.7.2 1.3.5zm16 0c-.3.3-1.2.4-1.9.1-.8-.3-.5-.6.6-.6 1.1-.1 1.7.2 1.3.5zm16 0c-.3.3-1.2.4-1.9.1-.8-.3-.5-.6.6-.6 1.1-.1 1.7.2 1.3.5zm16 0c-.3.3-1.2.4-1.9.1-.8-.3-.5-.6.6-.6 1.1-.1 1.7.2 1.3.5zM90.5 310c.3.6-.1.7-.9.4-1.8-.7-2.1-1.4-.7-1.4.6 0 1.3.4 1.6 1zm176 0c.3.6-.1.7-.9.4-1.8-.7-2.1-1.4-.7-1.4.6 0 1.3.4 1.6 1zm120 0c.3.6-.1.7-.9.4-1.8-.7-2.1-1.4-.7-1.4.6 0 1.3.4 1.6 1zm32 0c.3.6-.1.7-.9.4-1-.4-1.6-.1-1.6.7 0 .7-.3 1-.6.6-.7-.7.4-2.7 1.6-2.7.5 0 1.2.4 1.5 1zm40.7-.3c-.6.2-.9 1-.6 1.5.4.7.2.8-.5.4-1.3-.9-.5-2.6 1.2-2.5.9 0 .8.2-.1.6zm-250.5 4.9c-.3.3-1.2.4-1.9.1-.8-.3-.5-.6.6-.6 1.1-.1 1.7.2 1.3.5zm151.7 4.4c-.6.5-2.4-2.1-2.4-3.4 0-.6.6-.1 1.4 1 .8 1 1.2 2.1 1 2.4zm-153.9-.1c-.3.5-.1 1.2.5 1.6.5.3 1 1.1 1 1.8 0 .6-.6.2-1.4-.8-1.3-1.8-1.3-3.5 0-3.5.3 0 .3.4-.1.9zm154.9 2.9c.2.4-.5.9-1.7.9-1.7.2-1.9 0-.7-.7 1.8-1.2 1.8-1.2 2.4-.2zm-152.7 4.8c-.3.3-1.2.4-1.9.1-.8-.3-.5-.6.6-.6 1.1-.1 1.7.2 1.3.5zm152 6.8c0 .8-.6 1.2-1.5.9-1.1-.5-1.1-.7 0-1.4.7-.5 1.3-.9 1.4-.9 0 0 .1.6.1 1.4zm-152 9.2c-.3.3-1.2.4-1.9.1-.8-.3-.5-.6.6-.6 1.1-.1 1.7.2 1.3.5zm152 6.8c0 .8-.6 1.2-1.5.9-1.1-.5-1.1-.7 0-1.4.7-.5 1.3-.9 1.4-.9 0 0 .1.6.1 1.4zm-47.7 11c0 .5-.3.6-.6.3-.4-.3-1.6-.1-2.7.4-2.6 1.5-4.4-1-2.1-2.8 1.3-.9 2.1-.9 3.5 0 1 .6 1.9 1.6 1.9 2.1zm-150.4-1.1c.3.3.1.8-.5 1.2-.6.3-1.1.1-1.1-.5s-.4-.8-1-.5c-.5.3-1 1.4-.9 2.3 0 1.1.2 1.2.6.4.2-.6.9-.9 1.4-.6.6.3 1.7 0 2.6-.8.9-.7 1.4-.8 1-.2-.4.7 0 1.4.8 1.8.8.3 1.7.1 1.9-.3.3-.5 1.8-.7 3.3-.5 1.5.1 3.6-.4 4.5-1.3 1.1-1 1.8-1.2 1.8-.5s-.4 1.2-1 1.2c-.5 0-1 .4-1 .8 0 1.1 3.7.9 4.7-.3.5-.4.2-.5-.6 0-1 .5-1.2.4-.7-.3.5-.8 1.3-.9 2.5-.3 2 1.1 4.7.9 5.8-.4.4-.4.2-.5-.4-.1-.8.4-1.3.2-1.3-.5 0-.8-.5-.7-1.7.2-1.6 1.3-1.7 1.2-.4-.3 1.6-2.1 5.4-.7 4.5 1.7-.4.8-.2 1.5.4 1.5.6 0 1.5-1.2 2-2.8.9-2.3 1.1-2.4 1.1-.6.1 1.2.7 2.4 1.4 2.7 1 .4 1.3-.2 1-2.1-.3-2.6-.3-2.6.6-.5.6 1.3 1.5 2.3 2.1 2.3 1.2 0 .9-2.2-.5-3.2-.5-.4 0-.6 1.2-.5 1.5.1 1.9.5 1.2 1.3-.6.8-.4 1.6.8 2.5 1.1.9 1.4 1 .9.1-1.4-2.4.5-3.4 2.8-1.3 2 1.9 2.1 2.7 1.9 23.3 0 11.7-.2 21.5-.2 21.8-.1.3-9.4.4-20.8.3-24.9-.1-24.3-.1-24.2-1.1.3-2-.2-3.2-1.3-2.6-.7.5-.8.3-.4-.5.5-.7 1.5-1 2.3-.7 1.3.5 1.3.3-.1-1.9-.9-1.4-1.3-2.5-.9-2.4 2.1.3 2-.3-.2-2.6-1.4-1.3-2.5-3-2.5-3.7 0-.7 1 0 2.1 1.7 1.2 1.6 1.9 2.3 1.6 1.4-.3-.9 0-2.2.6-2.9.9-1 .8-1.2-.5-.7-1 .4-1.8.2-1.8-.3 0-.6.5-1 1-1 .6 0 1-.5 1-1 0-.7-.6-.7-1.8-.1-1.4.7-1.9.6-1.9-.4 0-.8.5-1.1 1-.8.6.3 1.6-.2 2.3-1.2 1.2-1.6 1.1-2.2-.4-3.9-.9-1-1.1-1.6-.5-1.2.9.5 1.1.2.7-.8-.4-1-.1-1.6.7-1.6 1.1 0 1.1-.3-.1-1-.8-.5-1.1-1-.6-1 .5 0 .3-.7-.4-1.6-.8-.8-.9-1.4-.4-1.3 2.2.4 2.2-.3-.1-2.6-1.4-1.3-2.5-3-2.5-3.7 0-.7.9 0 1.9 1.5l1.9 2.9v-2.6c0-1.4-.4-2.3-.9-2-.5.3-.9 0-.9-.5 0-.6.8-1.1 1.7-1.1 1.4 0 1.4-.3-.5-1.6-1.2-.8-2.7-2.4-3.3-3.5-1-2-.8-2.1 2.6-1.6 2 .3 3.9.7 4.1 1zm4.7.2c.4.8.3 1.6-.1 1.9-.4.3-.9-.4-.9-1.5-.2-2.3.3-2.5 1-.4zm3.1.1c.3.8.2 1.2-.4.9-.6-.3-1-1-1-1.6 0-1.4.7-1.1 1.4.7zm2.6-.1c0 .8-.2 1.5-.4 1.5s-.6-.7-1-1.5c-.3-.8-.1-1.5.4-1.5.6 0 1 .7 1 1.5zm8.3-.8c-.7.2-1.9.2-2.5 0-.7-.3-.2-.5 1.2-.5s1.9.2 1.3.5zm136 0c-.7.2-1.9.2-2.5 0-.7-.3-.2-.5 1.2-.5s1.9.2 1.3.5zm8 0c-.7.2-1.9.2-2.5 0-.7-.3-.2-.5 1.2-.5s1.9.2 1.3.5zm6.1 2.8c-.4.8-.2 1.5.4 1.5.6 0 1.5-1.2 2-2.8.9-2.3 1.1-2.4 1.1-.6.1 1.2.7 2.4 1.4 2.7 1 .4 1.3-.2 1-2.1-.3-2.6-.3-2.6.6-.5.6 1.3 1.5 2.3 2.1 2.3.8 0 .8-.6 0-2-.6-1.1-.7-2-.3-2 .5 0 1.3 1 1.8 2.2 1 2.3 5.1 3.2 6.2 1.5.4-.6.1-.7-.7-.2-.9.5-1.1.4-.6-.3.5-.9 1.3-.9 2.7-.2 1.1.6 2.3.8 2.8.5.5-.3 1.2 0 1.4.5.3.6.4.5.3-.2-.2-.7-1.1-1.2-2.1-1.1-1.3.1-1.4-.2-.6-1 .8-.8 1.7-.5 3.3 1.1 2.2 2.1 2.3 2.9 2.3 23.7 0 13.5-.4 21.6-1 21.8-2.1.6-44.2 0-45.3-.7-.7-.4-1.2-1.3-1.2-1.9 0-.9.2-.9.8 0 .4.7.8-1.4.9-4.7 0-3.7-.3-5.8-.9-5.4-.6.4-.6-.1 0-1.3.6-1.1.9-2.8.8-3.9-.2-1 .1-2.5.7-3.2.7-.9.6-1.1-.5-.7-.8.3-2.1-.2-2.9-1.2-1.3-1.6-1.2-1.7.4-.4 1.2.9 1.7 1 1.7.2 0-.7.5-.9 1.2-.5s.8.3.4-.5c-.4-.6-1.3-.8-1.9-.4-.9.5-.9.3-.1-.8 1.5-1.9 1.6-12.1 0-11.2-.6.4-.5-.1.3-1 .7-.9 1-1.7.6-1.7s-.2-.7.5-1.5c1.1-1.3 1-1.4-.2-1-.9.4-1.5 0-1.5-.9 0-.8.6-1.2 1.5-.8 1.1.4 1.3.1.7-.7-.6-1-.3-1.1 1.3-.2 1.5.8 2.3.8 2.8-.1.5-.7.3-.8-.6-.3-.9.5-1.1.4-.6-.4.4-.6 1.2-.9 1.7-.5 2.5 1.5 6.9 2.2 7.5 1.2.5-.7.2-.8-.6-.3-.9.5-1.1.4-.6-.3.5-.8 1.3-.9 2.5-.3 2 1.1 4.7.9 5.8-.4.4-.4.2-.5-.4-.1-.8.4-1.3.2-1.3-.5 0-.8-.5-.7-1.7.2-1.6 1.3-1.7 1.2-.4-.3 1.6-2.1 5.4-.7 4.5 1.7zm17.9-2.8c-.7.2-1.9.2-2.5 0-.7-.3-.2-.5 1.2-.5s1.9.2 1.3.5zm-28.3 1.1c0 .5-.7.9-1.5.9s-1.2-.4-.9-.9c.3-.4.9-.8 1.5-.8.5 0 .9.4.9.8zm23.2 1.4c-.7.7-1.2.8-1.2.2 0-1.4 1.2-2.6 1.9-1.9.2.3-.1 1.1-.7 1.7zm67.3 1.8c-.3.5-1.2 1-1.8 1-.7 0-.6-.4.3-1 1.9-1.2 2.3-1.2 1.5 0zm-103.1 5c-.6.6-1 .3-1-1s.4-1.6 1-1c.7.7.7 1.3 0 2zm100.9.5c-.3.9-.8 1.4-1 1.1-.3-.3-.2-.9.2-1.5.9-1.6 1.5-1.3.8.4zm-99.8 3.3c-.3.3-1.1 0-1.8-.7-.9-1-.8-1.1.6-.5 1 .3 1.5.9 1.2 1.2zm-152.8 1.4c-.3.8-.6.5-.6-.6-.1-1.1.2-1.7.5-1.3.3.3.4 1.2.1 1.9zM411 372c0 .5-.4 1-1 1-.5 0-1-.5-1-1 0-.6.5-1 1-1 .6 0 1 .4 1 1zm-101.6 4.1c-.8 1.4-2.1 1.1-2.1-.5 0-.8.6-1.2 1.4-.9.7.3 1 .9.7 1.4zm101.9-.4c-.3.7-.9 1.3-1.3 1.3s-1-.6-1.3-1.3c-.3-.7.3-1.3 1.3-1.3s1.6.6 1.3 1.3zM158 378c0 .5-.2 1-.4 1-.3 0-.8-.5-1.1-1-.3-.6-.1-1 .4-1 .6 0 1.1.4 1.1 1zm250.7 7.2c-.3.7-.5.2-.5-1.2s.2-1.9.5-1.3c.2.7.2 1.9 0 2.5zM159.5 384c-.3.5-1.1 1-1.6 1-.6 0-.7-.5-.4-1 .3-.6 1.1-1 1.6-1 .6 0 .7.4.4 1zm149.2 3.4c-.3.7-.1 1.8.4 2.3.6.6.5 1-.4 1-.7 0-1.3-1.1-1.3-2.4 0-1.3.4-2.3.9-2.3s.7.6.4 1.4zm102.3.6c0 .5-.4 1-1 1-.5 0-1-.5-1-1 0-.6.5-1 1-1 .6 0 1 .4 1 1zm.3 3.7c-.7 1.7-1.9 1.7-2.6 0-.3-.7.3-1.3 1.3-1.3s1.6.6 1.3 1.3zm-101.8 4.1c-.3.3-1.1 0-1.8-.7-.9-1-.8-1.1.6-.5 1 .3 1.5.9 1.2 1.2zm-152.8 1.4c-.3.8-.6.5-.6-.6-.1-1.1.2-1.7.5-1.3.3.3.4 1.2.1 1.9zm152.6 3.4c-.7 2-1.9 1.7-1.9-.5 0-1.1.6-1.7 1.3-1.4.6.3.9 1.1.6 1.9zm99.4.6c-.3.7-.5.2-.5-1.2s.2-1.9.5-1.3c.2.7.2 1.9 0 2.5zM158 400c-.8.5-1.9 1-2.5 1-.5 0-.3-.5.5-1s2-1 2.5-1c.6 0 .3.5-.5 1zm-48.6 8.2c-.3.4 0 .8.7.8 2 0 0 1.4-2.6 1.7-1.8.3-2.2 0-1.9-1.5.3-1 1.4-1.8 2.4-1.8s1.6.4 1.4.8zm101.1 0c.7-.5-2.4 4.3-4.1 6.7-.2.2-.3-.5-.2-1.5 0-1.1 0-2.4-.2-2.9-.7-2.6 0-3.6 1.9-2.6 1 .6 2.2.7 2.6.3zm150.7 1.9c-2.1 2.4-3.2 2.4-3.2.1 0-2.5.7-3.1 3-2.5 1.7.5 1.7.6.2 2.4zM134 409c-.8.5-1.9 1-2.5 1-.5 0-.3-.5.5-1s2-1 2.5-1c.6 0 .3.5-.5 1zm6.5 0c-.3.5-1.2 1-1.8 1-.7 0-.6-.4.3-1 1.9-1.2 2.3-1.2 1.5 0zm11.8.5c-.3.9-.8 1.4-1 1.1-.3-.3-.2-.9.2-1.5.9-1.6 1.5-1.3.8.4zm77.7-.5c-.8.5-1.9 1-2.5 1-.5 0-.3-.5.5-1s2-1 2.5-1c.6 0 .3.5-.5 1zm6.5 0c-.3.5-1.2 1-1.8 1-.7 0-.6-.4.3-1 1.9-1.2 2.3-1.2 1.5 0zm17.5 0c-.8.5-1.9 1-2.5 1-.5 0-.3-.5.5-1s2-1 2.5-1c.6 0 .3.5-.5 1zm24 0c-.8.5-1.9 1-2.5 1-.5 0-.3-.5.5-1s2-1 2.5-1c.6 0 .3.5-.5 1zm7.9.4c.9 1 .8 1.5-.3 1.9-1 .4-1.3.1-.9-.9s0-1.2-1.1-.8c-.9.3-1.3 1.1-.9 1.7.4.6.1.7-.7.2-1-.6-.9-1.1.5-2.2 2.3-1.6 2-1.6 3.4.1zm92.1-.4c-1.8 1.2-3 1.3-3 .2 0-.4 1-.9 2.2-.9 1.8-.2 2 0 .8.7zm25 1.4c0 .2-.9.2-2-.1-1.1-.3-2-.9-2-1.5 0-.5.9-.4 2 .2 1.1.6 2 1.2 2 1.4zm2.5-.6c-.3.3-1.1 0-1.8-.7-.9-1-.8-1.1.6-.5 1 .3 1.5.9 1.2 1.2zm-40.5.2c0 .5-.5 1-1.1 1-.5 0-.7-.5-.4-1 .3-.6.8-1 1.1-1 .2 0 .4.4.4 1zm5.2.4c.7-.4.8-.2.4.5-.9 1.3-2.6.5-2.5-1.2 0-.9.2-.8.6.1.2.6 1 .9 1.5.6zm22.8-.3c0 .5.5.7 1.2.3.7-.4.8-.3.4.4-.4.6-1.3.9-2.1.5-1.7-.6-2-2.3-.5-2.3.6 0 1 .5 1 1.1zm67.5 3.9c-.3.5-1.2 1-1.8 1-.7 0-.6-.4.3-1 1.9-1.2 2.3-1.2 1.5 0zm-352.8 3.2c.2 1.8 0 2-.7.8-1.2-1.8-1.3-3-.2-3 .4 0 .9 1 .9 2.2zm252.3-1.8c0 .3-.4.8-1 1.1-.5.3-1 .1-1-.4 0-.6.5-1.1 1-1.1.6 0 1 .2 1 .4zm-153.3 5.8c-.3.7-.5.2-.5-1.2s.2-1.9.5-1.3c.2.7.2 1.9 0 2.5zm-98.9 1.3c-.3.3-.9-.2-1.2-1.2-.6-1.4-.5-1.5.5-.6.7.7 1 1.5.7 1.8zm100.9 1c0 .8-.4 1.5-.9 1.5-1 0-1.1-1.4-.1-2.3.9-1 1-.9 1 .8zm-102 4.7c-.3.8-.6.5-.6-.6-.1-1.1.2-1.7.5-1.3.3.3.4 1.2.1 1.9zm100 1c-.3.7-.5.2-.5-1.2s.2-1.9.5-1.3c.2.7.2 1.9 0 2.5zm154 .2c0 .8-.6 1.2-1.5.9-1.1-.5-1.1-.7 0-1.4.7-.5 1.3-.9 1.4-.9 0 0 .1.6.1 1.4zm99.8-.4c.3.6-.1.7-.9.4-1.8-.7-2.1-1.4-.7-1.4.6 0 1.3.4 1.6 1zM209 430.4c0 .2-.8 1-1.7 1.7-1.6 1.3-1.7 1.2-.4-.4 1.3-1.6 2.1-2.1 2.1-1.3zm251 1c0 .3-.4.8-1 1.1-.5.3-1 .1-1-.4 0-.6.5-1.1 1-1.1.6 0 1 .2 1 .4zM208.5 434c-.3.5-1.2 1-1.8 1-.7 0-.6-.4.3-1 1.9-1.2 2.3-1.2 1.5 0zm252.9-.2c.2.4-.5.9-1.7.9-1.7.2-1.9 0-.7-.7 1.8-1.2 1.8-1.2 2.4-.2zm-.7 3.6c0 .8-.6 1.2-1.5.9-1.1-.5-1.1-.7 0-1.4.7-.5 1.3-.9 1.4-.9 0 0 .1.6.1 1.4zM108.5 445c.3.6-.1.7-.9.4-1.8-.7-2.1-1.4-.7-1.4.6 0 1.3.4 1.6 1zm252.2.4c0 .8-.6 1.2-1.5.9-1.1-.5-1.1-.7 0-1.4.7-.5 1.3-.9 1.4-.9 0 0 .1.6.1 1.4zm98.4 2.9c-1 .9-1.1.8-.5-.6.3-1 .9-1.5 1.2-1.2.3.3 0 1.1-.7 1.8zm-351.4.9c.2 1.8 0 2-.7.8-1.2-1.8-1.3-3-.2-3 .4 0 .9 1 .9 2.2zm252.3 1.3c0 .5-.5.3-1-.5s-1-2-1-2.5c0-.6.5-.3 1 .5s1 1.9 1 2.5zm-151.4.5c0 1.2-.4 1.6-.9 1.1s-.6-1.4-.3-2c1-1.5 1.2-1.4 1.2.9zm252.8-1.2c.2.4-.5.9-1.7.9-1.7.2-1.9 0-.7-.7 1.8-1.2 1.8-1.2 2.4-.2zM108 453.5c.7.9.8 1.5.2 1.5-.5 0-1.2-.7-1.6-1.5-.3-.8-.4-1.5-.2-1.5s.9.7 1.6 1.5zm352.7-.1c0 .8-.6 1.2-1.5.9-1.1-.5-1.1-.7 0-1.4.7-.5 1.3-.9 1.4-.9 0 0 .1.6.1 1.4zM208 454c.8.5 1.1 1 .5 1-.5 0-1.7-.5-2.5-1s-1-1-.5-1c.6 0 1.7.5 2.5 1zm152.7.6c-.3.3-1.2.4-1.9.1-.8-.3-.5-.6.6-.6 1.1-.1 1.7.2 1.3.5zM460 457c.6 1.1.8 2 .6 2-.3 0-1-.9-1.6-2-.6-1.1-.8-2-.6-2 .3 0 1 .9 1.6 2zm-351.5 1.9c-.6.5-2.5-1-2.5-2 0-.5.6-.4 1.4.3.8.7 1.2 1.5 1.1 1.7zM73 460.1c0 .6-.4.7-1 .4-.5-.3-1-1.1-1-1.6 0-.6.5-.7 1-.4.6.3 1 1.1 1 1.6zm3.7-1.5c-.3.3-1.2.4-1.9.1-.8-.3-.5-.6.6-.6 1.1-.1 1.7.2 1.3.5zm5.1.8c-.7.8-1.5 1.2-1.7 1.1-.5-.6 1-2.5 2-2.5.5 0 .4.6-.3 1.4zm7.2-.5c0 .5-.7 1.2-1.6 1.5-1.4.5-1.5.4-.4-.9 1.4-1.7 2-1.9 2-.6zm8-.5c0 .3-.4.8-1 1.1-.5.3-1 .1-1-.4 0-.6.5-1.1 1-1.1.6 0 1 .2 1 .4zm1.7 1.5c0 1.1-.5 1.8-.9 1.5-.4-.3-.5-1.1-.1-1.9.7-2.1 1.2-1.9 1 .4zm70.3.2c0 .6-.4.7-1 .4-.5-.3-1-1.1-1-1.6 0-.6.5-.7 1-.4.6.3 1 1.1 1 1.6zm3.7-1.5c-.3.3-1.2.4-1.9.1-.8-.3-.5-.6.6-.6 1.1-.1 1.7.2 1.3.5zm5.1.8c-.7.8-1.5 1.2-1.7 1.1-.5-.6 1-2.5 2-2.5.5 0 .4.6-.3 1.4zm7.2-.5c0 .5-.7 1.2-1.6 1.5-1.4.5-1.5.4-.4-.9 1.4-1.7 2-1.9 2-.6zm8 1.2c0 .6-.4.7-1 .4-.5-.3-1-1.1-1-1.6 0-.6.5-.7 1-.4.6.3 1 1.1 1 1.6zm3.7-1.5c-.3.3-1.2.4-1.9.1-.8-.3-.5-.6.6-.6 1.1-.1 1.7.2 1.3.5zm120 0c-.3.3-1.2.4-1.9.1-.8-.3-.5-.6.6-.6 1.1-.1 1.7.2 1.3.5zm5.1.8c-.7.8-1.5 1.2-1.7 1.1-.5-.6 1-2.5 2-2.5.5 0 .4.6-.3 1.4zm7.2-.5c0 .5-.7 1.2-1.6 1.5-1.4.5-1.5.4-.4-.9 1.4-1.7 2-1.9 2-.6zm8-.5c0 .3-.4.8-1 1.1-.5.3-1 .1-1-.4 0-.6.5-1.1 1-1.1.6 0 1 .2 1 .4zm1.7 1.5c0 1.1-.5 1.8-.9 1.5-.4-.3-.5-1.1-.1-1.9.7-2.1 1.2-1.9 1 .4zm8.9 1.8c-.3.4-.6.1-.6-.6s-.4-.9-1-.6c-.6.4-.7-.1-.3-1.1.6-1.5.7-1.5 1.5.1.6.9.7 1.9.4 2.2zm6.3-2.8c.7.5.9 1.1.5 1.4-.5.3-1.5-.1-2.2-.9-1.4-1.6-.5-1.8 1.7-.5zm6.6.1c.3.5.1 1-.4 1-.6 0-1.1-.5-1.1-1 0-.6.2-1 .4-1 .3 0 .8.4 1.1 1zm60.2-.4c-.3.3-1.2.4-1.9.1-.8-.3-.5-.6.6-.6 1.1-.1 1.7.2 1.3.5zm5.1.8c-.7.8-1.5 1.2-1.7 1.1-.5-.6 1-2.5 2-2.5.5 0 .4.6-.3 1.4zm10.9-.8c-.3.3-1.2.4-1.9.1-.8-.3-.5-.6.6-.6 1.1-.1 1.7.2 1.3.5zm5.1.8c-.7.8-1.5 1.2-1.7 1.1-.5-.6 1-2.5 2-2.5.5 0 .4.6-.3 1.4zm-335.4.4c.2.4-.4.8-1.4.8-1 0-1.6-.4-1.4-.8.3-.4.9-.8 1.4-.8.5 0 1.1.4 1.4.8zm326.6 0c0 .5-.7.9-1.5.9s-1.2-.4-.9-.9c.3-.4.9-.8 1.5-.8.5 0 .9.4.9.8zm15.4 0c.3.5-.1.9-.9.9s-1.2-.4-.9-.9c.3-.4.7-.8.9-.8.2 0 .6.4.9.8zm6.6.2c0 .5-.2 1-.4 1-.3 0-.8-.5-1.1-1-.3-.6-.1-1 .4-1 .6 0 1.1.4 1.1 1z"/><path d="M197.5 210.9c-.3.5-.1 1.2.4 1.5.5.4 1.2.2 1.6-.4.3-.5 1.1-1 1.6-1 .6 0 .7.5.3 1.2-.4.7-.3.8.5.4 1.6-1 .4-2.6-1.9-2.6-1 0-2.1.4-2.5.9zM200.6 361.3c.3 1 .9 1.5 1.2 1.2.3-.3 0-1.1-.7-1.8-1-.9-1.1-.8-.5.6zM202.5 460.9c.3.6 1 .9 1.5.6.4-.3 1.1 0 1.3.5.3.6.4.5.3-.2-.1-.7-1.1-1.5-2.1-1.6-1.1-.3-1.5 0-1 .7z"/></svg>